<svg xmlns="http://www.w3.org/2000/svg" version="1.1" xmlns:xlink="http://www.w3.org/1999/xlink" width="210" height="210"><svg xmlns="http://www.w3.org/2000/svg" version="1.1" xmlns:xlink="http://www.w3.org/1999/xlink" width="210" height="210"><svg width="210" height="210" viewBox="0 0 210 210" fill="none" xmlns="http://www.w3.org/2000/svg">
    <path fill-rule="evenodd" clip-rule="evenodd" d="M83.5536 1.86611C72.7096 4.17111 61.0826 8.68712 51.5536 14.2961C16.8436 34.7261 -3.78038 75.5271 0.57762 115.14C1.19662 120.762 2.00662 125.902 2.37862 126.561C2.84662 127.392 4.04461 126.874 6.28161 124.873L9.51062 121.985L8.88962 111.137C7.05862 79.1361 20.3286 49.0441 44.9656 29.3271C68.3606 10.6031 101.336 3.65411 129.554 11.5021C137.787 13.7911 148.552 18.1121 148.05 18.9251C147.807 19.3181 115.636 46.3651 76.5606 79.0291C6.51962 137.576 5.54261 138.443 7.63261 140.158C14.3466 145.673 33.0346 147.503 46.7646 143.992C65.2286 139.27 97.4726 118.627 117.727 98.5611C125.789 90.5741 131.142 80.6771 132.132 71.9311L132.799 66.0351L154.676 47.7271C166.708 37.6571 176.551 29.1931 176.548 28.9181C176.546 28.6431 175.534 27.1841 174.299 25.6751L172.054 22.9321L148.101 42.9211L124.149 62.9091L124.082 69.1821C123.984 78.3661 120.506 84.7691 110.292 94.5691C91.0726 113.01 64.3566 130.463 47.0536 135.88C39.5606 138.226 25.3176 139.004 22.1636 137.24C20.7356 136.44 32.6556 126.056 91.4916 76.8461C130.571 44.1611 162.547 17.1391 162.549 16.7991C162.552 16.4591 158.507 14.1111 153.56 11.5831C143.753 6.57011 131.725 2.58011 121.554 0.965109C111.523 -0.627891 93.2456 -0.19489 83.5536 1.86611ZM160.26 54.5951C147.828 64.9481 137.634 73.9021 137.605 74.4941C137.577 75.0851 138.618 76.5691 139.918 77.7901L142.282 80.0111L164.878 61.2141C177.306 50.8761 187.476 42.1931 187.478 41.9181C187.48 41.6431 186.443 40.1481 185.172 38.5951L182.863 35.7721L160.26 54.5951ZM170.054 67.4971C157.954 77.6761 147.933 86.3481 147.785 86.7691C147.637 87.1891 148.636 88.5861 150.005 89.8721C152.192 91.9271 152.711 92.0421 154.27 90.8151C155.245 90.0471 165.395 81.6321 176.825 72.1161L197.606 54.8141L195.864 51.8661C194.906 50.2451 193.657 48.9341 193.088 48.9541C192.519 48.9741 182.154 57.3181 170.054 67.4971ZM179.912 81.0961L159.769 98.1161L150.412 98.2671C135.386 98.5091 134.541 99.0541 84.9046 140.49C61.3366 160.165 40.3716 177.753 38.3166 179.575L34.5796 182.889L40.8166 187.891C49.4976 194.853 66.9426 203.372 79.0536 206.563C87.8326 208.877 91.0076 209.201 105.054 209.22C119.154 209.239 122.207 208.934 130.76 206.649C150.273 201.436 166.628 191.769 180.786 177.082C199.871 157.285 209.532 133.313 209.668 105.418C209.723 93.9751 208.08 79.8721 206.701 79.9591C206.345 79.9811 204.615 81.2321 202.855 82.7391L199.657 85.4781L200.717 92.9481C203.087 109.65 199.689 129.712 191.662 146.418C185.882 158.445 179.957 166.486 170.155 175.602C156.783 188.039 137.86 197.165 119.554 200.005C97.5716 203.416 70.3436 197.584 52.6676 185.68L47.4516 182.168L88.4446 147.793C134.676 109.025 139.257 105.918 150.189 105.918C153.762 105.918 157.515 106.362 158.53 106.905C160.078 107.734 163.909 104.927 182.378 89.4311L204.383 70.9691L203.3 67.4441C202.705 65.5051 201.731 63.9541 201.136 63.9971C200.541 64.0411 190.99 71.7351 179.912 81.0961Z" fill="#262626"></path>
</svg></svg><style>@media (prefers-color-scheme: light) { :root { filter: none; } }
@media (prefers-color-scheme: dark) { :root { filter: none; } }
</style></svg>